<svg width="162" height="165" viewBox="0 0 162 165" fill="none" xmlns="http://www.w3.org/2000/svg">
<path opacity="0.68" d="M82.5375 82.5124C82.5375 82.5124 47.2332 123.543 0 83.9439C0 83.9439 37.2143 43.39 82.5375 82.5124Z" fill="#FF8360"/>
<path opacity="0.7" d="M82.5373 82.5124C82.5373 82.5124 28.5862 86.9054 22.7983 25.542C22.7983 25.542 77.7719 22.8294 82.5373 82.5124Z" fill="#3CDBD3"/>
<path opacity="0.68" d="M82.5373 82.5124C82.5373 82.5124 41.0611 47.7348 80.0562 0C80.0562 0 121.079 36.6934 82.5373 82.5124Z" fill="#FF8360"/>
<path opacity="0.7" d="M82.5373 82.5124C82.5373 82.5124 77.4574 28.6231 138.744 22.0538C138.744 22.0538 142.155 76.9869 82.5373 82.5124Z" fill="#3CDBD3"/>
<path opacity="0.7" d="M79.5264 81.5207C79.5264 81.5207 113.773 39.6047 162 77.9882C162 77.9882 125.83 119.476 79.5264 81.5207Z" fill="#E8E288"/>
<path opacity="0.68" d="M82.5381 82.5124C82.5381 82.5124 136.358 76.7476 143.709 137.945C143.709 137.945 88.8218 142.054 82.5381 82.5124Z" fill="#FF8360"/>
<path opacity="0.7" d="M82.5367 82.5124C82.5367 82.5124 124.883 116.225 87.1188 164.936C87.1188 164.936 45.1739 129.296 82.5367 82.5124Z" fill="#3CDBD3"/>
<path opacity="0.7" d="M82.5379 82.5124C82.5379 82.5124 88.9856 136.255 27.8885 144.381C27.8885 144.381 23.0807 89.5524 82.5379 82.5124Z" fill="#E8E288"/>
</svg>
