<svg width="735" height="180" viewBox="0 0 735 180" fill="none" xmlns="http://www.w3.org/2000/svg">
<path opacity="0.68" d="M82.5375 90.5124C82.5375 90.5124 47.2332 131.543 0 91.9439C0 91.9439 37.2143 51.39 82.5375 90.5124Z" fill="#FF8360"/>
<path opacity="0.7" d="M82.5373 90.5124C82.5373 90.5124 28.5862 94.9054 22.7983 33.542C22.7983 33.542 77.7719 30.8294 82.5373 90.5124Z" fill="#3CDBD3"/>
<path opacity="0.68" d="M82.5373 90.5124C82.5373 90.5124 41.0611 55.7348 80.0562 8C80.0562 8 121.079 44.6934 82.5373 90.5124Z" fill="#FF8360"/>
<path opacity="0.7" d="M82.5373 90.5124C82.5373 90.5124 77.4574 36.6231 138.744 30.0538C138.744 30.0538 142.155 84.9869 82.5373 90.5124Z" fill="#3CDBD3"/>
<path opacity="0.7" d="M79.5264 89.5207C79.5264 89.5207 113.773 47.6047 162 85.9882C162 85.9882 125.83 127.476 79.5264 89.5207Z" fill="#E8E288"/>
<path opacity="0.68" d="M82.5381 90.5124C82.5381 90.5124 136.358 84.7476 143.709 145.945C143.709 145.945 88.8218 150.054 82.5381 90.5124Z" fill="#FF8360"/>
<path opacity="0.7" d="M82.5367 90.5124C82.5367 90.5124 124.883 124.225 87.1188 172.936C87.1188 172.936 45.1739 137.296 82.5367 90.5124Z" fill="#3CDBD3"/>
<path opacity="0.7" d="M82.5379 90.5124C82.5379 90.5124 88.9856 144.255 27.8885 152.381C27.8885 152.381 23.0807 97.5524 82.5379 90.5124Z" fill="#E8E288"/>
<path d="M190.594 73V136H180.75C181.151 133.812 181.388 130.659 181.461 126.539C181.534 122.383 181.57 117.607 181.57 112.211V79.9453C181.57 74.5495 181.534 69.7917 181.461 65.6719C181.388 61.5156 181.151 58.3438 180.75 56.1562H190.594L234.07 119.43V56.1562H243.914C243.732 57.25 243.586 58.599 243.477 60.2031C243.367 61.8073 243.276 63.6302 243.203 65.6719C243.167 67.6771 243.13 69.8828 243.094 72.2891C243.094 74.6953 243.094 77.2474 243.094 79.9453V136H234.07L190.594 73ZM262.508 62.4453C262.508 61.4245 262.672 60.4766 263 59.6016C263.328 58.6901 263.784 57.9062 264.367 57.25C264.987 56.5573 265.716 56.0286 266.555 55.6641C267.393 55.263 268.323 55.0625 269.344 55.0625C270.365 55.0625 271.312 55.263 272.188 55.6641C273.062 56.0286 273.81 56.5573 274.43 57.25C275.049 57.9062 275.542 58.6901 275.906 59.6016C276.271 60.4766 276.453 61.4245 276.453 62.4453C276.453 63.4661 276.271 64.4323 275.906 65.3438C275.542 66.2188 275.049 67.0026 274.43 67.6953C273.81 68.3516 273.062 68.8802 272.188 69.2812C271.312 69.6458 270.365 69.8281 269.344 69.8281C268.323 69.8281 267.393 69.6458 266.555 69.2812C265.716 68.8802 264.987 68.3516 264.367 67.6953C263.784 67.0026 263.328 66.2188 263 65.3438C262.672 64.4323 262.508 63.4661 262.508 62.4453ZM274.539 110.023C274.539 111.773 274.557 113.852 274.594 116.258C274.667 118.628 274.74 121.034 274.812 123.477C274.922 125.919 275.031 128.253 275.141 130.477C275.286 132.701 275.451 134.542 275.633 136H264.422V107.016C264.422 104.354 264.404 101.729 264.367 99.1406C264.367 96.5521 264.331 94.1094 264.258 91.8125C264.221 89.4792 264.148 87.3281 264.039 85.3594C263.93 83.3542 263.784 81.6406 263.602 80.2188H274.539V110.023ZM293.461 136V102.367C293.461 96.9714 293.151 92.4141 292.531 88.6953C291.948 84.9401 291.346 82.1146 290.727 80.2188H300.57C300.789 80.8021 301.008 81.5677 301.227 82.5156C301.445 83.4271 301.646 84.3932 301.828 85.4141C302.01 86.4349 302.174 87.4375 302.32 88.4219L302.758 90.8828C304.07 88.987 305.492 87.3099 307.023 85.8516C308.591 84.3932 310.159 83.1719 311.727 82.1875C313.331 81.1667 314.88 80.401 316.375 79.8906C317.906 79.3802 319.292 79.125 320.531 79.125C322.828 79.125 324.76 79.6354 326.328 80.6562C327.932 81.6406 329.227 82.9896 330.211 84.7031C331.232 86.3802 331.961 88.3307 332.398 90.5547C332.872 92.7422 333.109 95.0391 333.109 97.4453L324.359 99.3594C324.359 98.0104 324.232 96.7161 323.977 95.4766C323.721 94.2005 323.339 93.0885 322.828 92.1406C322.318 91.1562 321.661 90.3906 320.859 89.8438C320.094 89.2604 319.164 88.9688 318.07 88.9688C316.904 88.9688 315.609 89.4245 314.188 90.3359C312.766 91.2109 311.362 92.3776 309.977 93.8359C308.628 95.2943 307.37 96.9349 306.203 98.7578C305.036 100.581 304.161 102.422 303.578 104.281V136H293.461ZM391.078 80.2188C390.312 81.7865 389.51 83.4818 388.672 85.3047C387.87 87.1276 387.086 88.9141 386.32 90.6641C385.591 92.4141 384.898 94.0729 384.242 95.6406C383.586 97.2083 383.039 98.5391 382.602 99.6328C382.237 100.508 381.745 101.711 381.125 103.242C380.542 104.737 379.867 106.432 379.102 108.328C378.372 110.188 377.589 112.174 376.75 114.289C375.911 116.367 375.091 118.427 374.289 120.469C372.357 125.281 370.297 130.458 368.109 136H357.719C355.604 130.714 353.617 125.719 351.758 121.016C350.956 119.01 350.135 116.969 349.297 114.891C348.458 112.812 347.656 110.826 346.891 108.93C346.161 106.997 345.469 105.229 344.812 103.625C344.193 102.021 343.664 100.69 343.227 99.6328C342.789 98.5391 342.242 97.2083 341.586 95.6406C340.93 94.0365 340.219 92.3594 339.453 90.6094C338.688 88.8594 337.904 87.0911 337.102 85.3047C336.299 83.4818 335.516 81.7865 334.75 80.2188H346.234L362.914 125.062L379.594 80.2188H391.078ZM436.195 88.8594C435.758 88.75 435.266 88.6406 434.719 88.5312C434.172 88.4219 433.516 88.3125 432.75 88.2031C432.021 88.0938 431.146 88.0208 430.125 87.9844C429.141 87.9115 427.974 87.875 426.625 87.875C423.052 87.875 420.062 88.6042 417.656 90.0625C415.286 91.4844 413.391 93.3984 411.969 95.8047C410.547 98.1745 409.526 100.909 408.906 104.008C408.323 107.107 408.031 110.297 408.031 113.578C408.031 115.693 408.232 117.643 408.633 119.43C409.07 121.18 409.654 122.711 410.383 124.023C411.112 125.299 411.951 126.302 412.898 127.031C413.846 127.724 414.867 128.07 415.961 128.07C417.565 128.07 419.169 127.451 420.773 126.211C422.414 124.971 423.982 123.385 425.477 121.453C426.971 119.484 428.375 117.297 429.688 114.891C431 112.448 432.13 110.042 433.078 107.672C434.062 105.266 434.828 103.005 435.375 100.891C435.922 98.776 436.195 97.0807 436.195 95.8047V88.8594ZM440.297 136C439.896 135.125 439.531 133.922 439.203 132.391C438.911 130.859 438.656 129.237 438.438 127.523C438.255 125.773 438.109 124.042 438 122.328C437.891 120.615 437.836 119.156 437.836 117.953V113.578C436.742 116.422 435.43 119.266 433.898 122.109C432.404 124.917 430.672 127.451 428.703 129.711C426.771 131.971 424.602 133.812 422.195 135.234C419.789 136.656 417.164 137.367 414.32 137.367C412.023 137.367 409.872 136.857 407.867 135.836C405.862 134.815 404.112 133.302 402.617 131.297C401.159 129.292 400.01 126.812 399.172 123.859C398.333 120.87 397.914 117.443 397.914 113.578C397.914 109.24 398.497 105.01 399.664 100.891C400.831 96.7344 402.617 93.0521 405.023 89.8438C407.43 86.599 410.492 84.0104 414.211 82.0781C417.93 80.1094 422.341 79.125 427.445 79.125C430.982 79.125 434.318 79.362 437.453 79.8359C440.589 80.2734 443.542 80.8568 446.312 81.5859V107.016C446.312 113.906 446.641 119.703 447.297 124.406C447.953 129.073 448.81 132.938 449.867 136H440.297ZM499.086 88.8594C498.648 88.75 498.156 88.6406 497.609 88.5312C497.062 88.4219 496.406 88.3125 495.641 88.2031C494.911 88.0938 494.036 88.0208 493.016 87.9844C492.031 87.9115 490.865 87.875 489.516 87.875C485.943 87.875 482.953 88.6042 480.547 90.0625C478.177 91.4844 476.281 93.3984 474.859 95.8047C473.438 98.1745 472.417 100.909 471.797 104.008C471.214 107.107 470.922 110.297 470.922 113.578C470.922 115.693 471.122 117.643 471.523 119.43C471.961 121.18 472.544 122.711 473.273 124.023C474.003 125.299 474.841 126.302 475.789 127.031C476.737 127.724 477.758 128.07 478.852 128.07C480.456 128.07 482.06 127.451 483.664 126.211C485.305 124.971 486.872 123.385 488.367 121.453C489.862 119.484 491.266 117.297 492.578 114.891C493.891 112.448 495.021 110.042 495.969 107.672C496.953 105.266 497.719 103.005 498.266 100.891C498.812 98.776 499.086 97.0807 499.086 95.8047V88.8594ZM503.188 136C502.786 135.125 502.422 133.922 502.094 132.391C501.802 130.859 501.547 129.237 501.328 127.523C501.146 125.773 501 124.042 500.891 122.328C500.781 120.615 500.727 119.156 500.727 117.953V113.578C499.633 116.422 498.32 119.266 496.789 122.109C495.294 124.917 493.562 127.451 491.594 129.711C489.661 131.971 487.492 133.812 485.086 135.234C482.68 136.656 480.055 137.367 477.211 137.367C474.914 137.367 472.763 136.857 470.758 135.836C468.753 134.815 467.003 133.302 465.508 131.297C464.049 129.292 462.901 126.812 462.062 123.859C461.224 120.87 460.805 117.443 460.805 113.578C460.805 109.24 461.388 105.01 462.555 100.891C463.721 96.7344 465.508 93.0521 467.914 89.8438C470.32 86.599 473.383 84.0104 477.102 82.0781C480.82 80.1094 485.232 79.125 490.336 79.125C493.872 79.125 497.208 79.362 500.344 79.8359C503.479 80.2734 506.432 80.8568 509.203 81.5859V107.016C509.203 113.906 509.531 119.703 510.188 124.406C510.844 129.073 511.701 132.938 512.758 136H503.188ZM561.977 90.6094C561.102 90.2812 560.172 89.9896 559.188 89.7344C558.203 89.4427 557.201 89.2057 556.18 89.0234C555.159 88.8411 554.156 88.6953 553.172 88.5859C552.224 88.4766 551.331 88.4219 550.492 88.4219C547.503 88.4219 544.951 89.0417 542.836 90.2812C540.721 91.4844 538.99 93.0885 537.641 95.0938C536.328 97.0625 535.362 99.3047 534.742 101.82C534.122 104.336 533.812 106.888 533.812 109.477C533.812 112.867 534.068 115.693 534.578 117.953C535.125 120.177 535.854 121.964 536.766 123.312C537.714 124.625 538.807 125.573 540.047 126.156C541.323 126.703 542.708 126.977 544.203 126.977C545.589 126.977 547.065 126.703 548.633 126.156C550.201 125.573 551.768 124.753 553.336 123.695C554.94 122.638 556.471 121.326 557.93 119.758C559.424 118.19 560.773 116.404 561.977 114.398V90.6094ZM572.094 134.633C572.094 139.445 571.383 143.565 569.961 146.992C568.576 150.419 566.734 153.208 564.438 155.359C562.177 157.547 559.589 159.151 556.672 160.172C553.755 161.193 550.784 161.703 547.758 161.703C544.258 161.703 540.776 161.102 537.312 159.898C533.885 158.695 530.714 157.109 527.797 155.141L531.352 146.664C533.94 148.523 536.547 150.036 539.172 151.203C541.797 152.37 544.477 152.953 547.211 152.953C548.633 152.953 550.201 152.698 551.914 152.188C553.628 151.677 555.232 150.784 556.727 149.508C558.221 148.268 559.461 146.591 560.445 144.477C561.466 142.362 561.977 139.719 561.977 136.547V125.336C560.555 127.122 559.042 128.708 557.438 130.094C555.87 131.443 554.266 132.573 552.625 133.484C551.021 134.396 549.398 135.089 547.758 135.562C546.154 136.036 544.604 136.273 543.109 136.273C540.594 136.273 538.169 135.836 535.836 134.961C533.503 134.086 531.424 132.701 529.602 130.805C527.815 128.872 526.375 126.375 525.281 123.312C524.224 120.25 523.695 116.549 523.695 112.211C523.695 108.018 524.242 103.935 525.336 99.9609C526.43 95.987 528.125 92.4688 530.422 89.4062C532.719 86.3073 535.654 83.8281 539.227 81.9688C542.836 80.0729 547.138 79.125 552.133 79.125C553.773 79.125 555.451 79.2526 557.164 79.5078C558.914 79.7266 560.646 80.0365 562.359 80.4375C564.073 80.8385 565.75 81.2943 567.391 81.8047C569.031 82.2786 570.599 82.7526 572.094 83.2266V134.633ZM623.555 88.8594C623.117 88.75 622.625 88.6406 622.078 88.5312C621.531 88.4219 620.875 88.3125 620.109 88.2031C619.38 88.0938 618.505 88.0208 617.484 87.9844C616.5 87.9115 615.333 87.875 613.984 87.875C610.411 87.875 607.422 88.6042 605.016 90.0625C602.646 91.4844 600.75 93.3984 599.328 95.8047C597.906 98.1745 596.885 100.909 596.266 104.008C595.682 107.107 595.391 110.297 595.391 113.578C595.391 115.693 595.591 117.643 595.992 119.43C596.43 121.18 597.013 122.711 597.742 124.023C598.471 125.299 599.31 126.302 600.258 127.031C601.206 127.724 602.227 128.07 603.32 128.07C604.924 128.07 606.529 127.451 608.133 126.211C609.773 124.971 611.341 123.385 612.836 121.453C614.331 119.484 615.734 117.297 617.047 114.891C618.359 112.448 619.49 110.042 620.438 107.672C621.422 105.266 622.188 103.005 622.734 100.891C623.281 98.776 623.555 97.0807 623.555 95.8047V88.8594ZM627.656 136C627.255 135.125 626.891 133.922 626.562 132.391C626.271 130.859 626.016 129.237 625.797 127.523C625.615 125.773 625.469 124.042 625.359 122.328C625.25 120.615 625.195 119.156 625.195 117.953V113.578C624.102 116.422 622.789 119.266 621.258 122.109C619.763 124.917 618.031 127.451 616.062 129.711C614.13 131.971 611.961 133.812 609.555 135.234C607.148 136.656 604.523 137.367 601.68 137.367C599.383 137.367 597.232 136.857 595.227 135.836C593.221 134.815 591.471 133.302 589.977 131.297C588.518 129.292 587.37 126.812 586.531 123.859C585.693 120.87 585.273 117.443 585.273 113.578C585.273 109.24 585.857 105.01 587.023 100.891C588.19 96.7344 589.977 93.0521 592.383 89.8438C594.789 86.599 597.852 84.0104 601.57 82.0781C605.289 80.1094 609.701 79.125 614.805 79.125C618.341 79.125 621.677 79.362 624.812 79.8359C627.948 80.2734 630.901 80.8568 633.672 81.5859V107.016C633.672 113.906 634 119.703 634.656 124.406C635.312 129.073 636.169 132.938 637.227 136H627.656ZM694.102 136H683.984V104.828C683.984 101.438 683.857 98.7031 683.602 96.625C683.346 94.5104 682.909 92.8698 682.289 91.7031C681.706 90.5 680.904 89.6979 679.883 89.2969C678.862 88.8958 677.586 88.6953 676.055 88.6953C674.706 88.6953 673.357 88.9688 672.008 89.5156C670.659 90.0625 669.365 90.8464 668.125 91.8672C666.922 92.8516 665.792 94.0365 664.734 95.4219C663.714 96.7708 662.839 98.2656 662.109 99.9062V136H651.992V102.367C651.992 96.9714 651.682 92.4141 651.062 88.6953C650.443 84.9401 649.841 82.1146 649.258 80.2188H659.102C659.503 81.3854 659.849 82.7708 660.141 84.375C660.432 85.9427 660.669 87.3828 660.852 88.6953C662.529 86.763 664.133 85.1771 665.664 83.9375C667.195 82.6979 668.708 81.7318 670.203 81.0391C671.734 80.3099 673.247 79.8177 674.742 79.5625C676.237 79.2708 677.768 79.125 679.336 79.125C681.122 79.125 682.745 79.3802 684.203 79.8906C685.661 80.401 686.938 81.0755 688.031 81.9141C689.161 82.7526 690.128 83.737 690.93 84.8672C691.732 85.9609 692.352 87.1094 692.789 88.3125C694.503 86.4531 696.161 84.9401 697.766 83.7734C699.37 82.5703 700.938 81.6406 702.469 80.9844C704 80.2917 705.495 79.8177 706.953 79.5625C708.448 79.2708 709.906 79.125 711.328 79.125C714.099 79.125 716.432 79.5807 718.328 80.4922C720.224 81.3672 721.737 82.6797 722.867 84.4297C724.034 86.1797 724.854 88.349 725.328 90.9375C725.839 93.526 726.094 96.5156 726.094 99.9062V136H715.977V105.922C715.977 102.385 715.849 99.5052 715.594 97.2812C715.339 95.0573 714.901 93.3073 714.281 92.0312C713.698 90.7552 712.896 89.8802 711.875 89.4062C710.854 88.9323 709.578 88.6953 708.047 88.6953C706.698 88.6953 705.367 88.9688 704.055 89.5156C702.742 90.026 701.466 90.7734 700.227 91.7578C699.023 92.7057 697.893 93.8724 696.836 95.2578C695.815 96.6432 694.904 98.1927 694.102 99.9062V136Z" fill="#121212"/>
</svg>
